<?xml version="1.0" encoding="UTF-8"?>
<svg fill="#2E2E2E" viewBox="0 0 100 100" xmlns="http://www.w3.org/2000/svg">
 <g>
  <path d="m72 30.199c-6.1992 0-11.398-5.1992-11.398-11.398v-16.801h-40c-5.2031 0-9.4023 4.1992-9.4023 9.3984v77.199c0 5.1992 4.1992 9.3984 9.3984 9.3984h58.801c5.1992 0 9.3984-4.1992 9.3984-9.3984l0.003906-58.398zm-7.6016 18.199v5h-17.199v-5zm0 11v5h-27.598v-5zm-35.199-32.199 1.1992-0.39844 1-1.6016v-0.80078l-1.6016-1.8008c-0.60156-0.80078-0.39844-1.6016-0.39844-2.1992-1.3984 0.19922-2.1992-4.3984-0.60156-4.3984-0.19922-4.8008 1-4.6016 1.1992-5.1992 0.19922-1.1992 2.3984-3 6.6016-2.1992 4.3984 0.80078 4 4.1992 4 4.1992 0.19922 0.39844 0.19922 1.8008 0 3.1992h0.19922c1.3984 0.19922 0.60156 4.8008-0.80078 4.3984 0 0.60156 0.19922 1.3984-0.39844 2.1992l-1.5977 1.6016v0.80078l1 1.8008c0.19922 0 4.8008 1.6016 5 1.8008 0 0 0.80078 0.19922 1.3984 0.80078 2.1992 1.6016 1.6016 3.3984 1.8008 7.8008 0 1.6016-1.1992 3-3 3h-19.398c-1.6016 0-3-1.3984-2.8008-3 0.39844-7.6016-0.39844-7.4023 7.1992-10.004zm-9.3984 21.199h24.199v5h-24.199zm0 11h13.602v5h-13.602zm0 11h24.199v5h-24.199zm32.801 15.801h-32.801v-5h32.801zm3-10.801h-8.1992v-5h8.1992zm24.598 10.801h-24.398v-5h24.398zm0-10.801h-21.598v-5h21.602zm0-11h-12.801v-5h12.801zm0-11h-12.801v-5h12.801z"/>
  <path d="m62.602 18.801c0 5.1992 4.1992 9.3984 9.3984 9.3984h16.801l-26.199-26.199z"/>
 </g>
</svg>
